<svg width="440" height="492" viewBox="0 0 440 492" fill="none" xmlns="http://www.w3.org/2000/svg">
<g filter="url(#filter0_dddddd_245_2175)">
<circle cx="219.706" cy="171.96" r="140" transform="rotate(-15 219.706 171.96)" fill="#101010"/>
</g>
<path d="M142.103 262.255L137.328 257.814C136.859 257.377 136.519 256.973 136.307 256.602C136.09 256.225 135.961 255.881 135.922 255.572C135.883 255.262 135.918 254.984 136.028 254.736C136.127 254.49 136.261 254.276 136.43 254.095L136.52 253.998C136.711 253.794 136.921 253.651 137.151 253.569C137.369 253.488 137.588 253.452 137.81 253.462C138.025 253.466 138.231 253.504 138.426 253.576C138.621 253.649 138.788 253.733 138.928 253.83C138.774 253.632 138.641 253.41 138.53 253.165C138.408 252.921 138.337 252.669 138.316 252.409C138.29 252.144 138.322 251.874 138.415 251.6C138.495 251.325 138.659 251.057 138.904 250.794L138.994 250.697C139.202 250.475 139.453 250.288 139.748 250.137C140.031 249.986 140.357 249.912 140.726 249.916C141.083 249.921 141.486 250.023 141.935 250.222C142.379 250.428 142.864 250.776 143.392 251.266L148.193 255.732L142.103 262.255ZM141.56 259.211L142.649 258.045L139.949 255.534C139.674 255.278 139.435 255.159 139.231 255.177C139.022 255.201 138.847 255.289 138.705 255.441L138.689 255.459C138.541 255.617 138.469 255.8 138.471 256.009C138.461 256.219 138.591 256.449 138.861 256.7L141.56 259.211ZM143.844 256.765L145.047 255.477L142.207 252.834C142.049 252.687 141.901 252.582 141.762 252.519C141.619 252.462 141.49 252.435 141.377 252.439C141.253 252.443 141.143 252.473 141.049 252.527C140.943 252.581 140.852 252.649 140.776 252.731L140.743 252.766C140.666 252.848 140.61 252.938 140.574 253.035C140.526 253.133 140.51 253.238 140.526 253.351C140.535 253.458 140.579 253.575 140.657 253.703C140.73 253.836 140.846 253.976 141.004 254.123L143.844 256.765Z" fill="#7D8082"/>
<path d="M130.597 246.489L128.318 243.654C127.882 243.111 127.578 242.611 127.406 242.154C127.227 241.703 127.154 241.285 127.184 240.902C127.208 240.523 127.324 240.175 127.529 239.857C127.735 239.538 128.004 239.246 128.335 238.982L128.438 238.899C128.769 238.634 129.118 238.437 129.485 238.307C129.842 238.175 130.21 238.137 130.592 238.19C130.974 238.243 131.372 238.407 131.786 238.68C132.196 238.947 132.613 239.345 133.04 239.876L136.868 244.639L129.898 250.216L128.349 248.288L130.597 246.489ZM131.624 241.255C131.358 240.924 131.085 240.738 130.805 240.695C130.524 240.653 130.266 240.727 130.028 240.917L129.963 240.969C129.725 241.159 129.603 241.39 129.596 241.662C129.583 241.939 129.709 242.243 129.975 242.574L132.133 245.26L133.782 243.94L131.624 241.255ZM128.587 234.336L130.137 236.263L123.167 241.841L121.618 239.913L128.587 234.336Z" fill="#7D8082"/>
<path d="M119.044 235.863L117.804 233.724L123.834 230.247L122.366 227.713L116.336 231.191L115.096 229.052L121.126 225.574L119.657 223.04L113.627 226.518L112.387 224.379L120.123 219.918L126.779 231.402L119.044 235.863Z" fill="#7D8082"/>
<path d="M107.154 211.805L108.959 211.08L111.109 216.397L112.456 215.856L110.375 210.706L112.246 209.954L114.328 215.104L115.765 214.526L113.589 209.143L115.416 208.409L118.505 216.051L110.217 219.381L107.154 211.805Z" fill="#7D8082"/>
<path d="M108.231 193.133L111.041 192.609L111.499 195.036L102.716 196.677L101.595 190.737C101.465 190.046 101.431 189.454 101.493 188.963C101.547 188.473 101.678 188.062 101.884 187.731C102.083 187.401 102.352 187.143 102.692 186.958C103.024 186.774 103.402 186.642 103.827 186.562L103.957 186.538C104.374 186.46 104.775 186.45 105.161 186.508C105.538 186.56 105.882 186.703 106.195 186.938C106.508 187.172 106.783 187.507 107.02 187.942C107.257 188.378 107.44 188.938 107.569 189.621L108.231 193.133ZM106.272 193.5L105.643 190.164C105.558 189.716 105.41 189.406 105.199 189.234C104.979 189.064 104.712 189.008 104.397 189.067L104.35 189.076C104.043 189.133 103.818 189.281 103.676 189.519C103.533 189.757 103.504 190.1 103.589 190.548L104.218 193.883L106.272 193.5Z" fill="#7D8082"/>
<path d="M103.022 178.801L102.846 175.172C102.812 174.477 102.86 173.895 102.989 173.425C103.111 172.955 103.297 172.574 103.547 172.282C103.79 171.99 104.088 171.776 104.442 171.639C104.796 171.502 105.185 171.424 105.609 171.404L105.741 171.398C106.165 171.378 106.564 171.423 106.938 171.533C107.304 171.636 107.626 171.821 107.903 172.088C108.181 172.355 108.407 172.72 108.582 173.184C108.757 173.64 108.86 174.207 108.893 174.886L109.19 180.982L100.262 181.404L100.142 178.937L103.022 178.801ZM106.935 175.171C106.914 174.747 106.803 174.437 106.601 174.238C106.399 174.04 106.146 173.947 105.842 173.962L105.758 173.966C105.454 173.98 105.219 174.095 105.053 174.311C104.879 174.528 104.802 174.847 104.823 175.271L104.99 178.708L107.102 178.608L106.935 175.171ZM108.549 167.796L108.669 170.263L99.7414 170.685L99.6215 168.218L108.549 167.796Z" fill="#7D8082"/>
<path d="M105.968 156.616L105.524 161.572L109.102 161.895L108.882 164.355L99.9795 163.551L100.2 161.091L103.502 161.389L103.946 156.433L100.644 156.135L100.864 153.675L109.766 154.479L109.546 156.939L105.968 156.616Z" fill="#7D8082"/>
<path d="M106.964 146.913L111.077 147.789L110.563 150.204L101.82 148.343L102.334 145.927L105.93 146.693L103.202 141.846L103.855 138.774L106.885 144.224L112.64 140.436L111.97 143.59L106.964 146.913Z" fill="#7D8082"/>
<path d="M108.233 131.251L111.179 133.904L112.2 130.883L108.233 131.251ZM114.207 130.688L112.663 135.254L114.003 136.466L113.208 138.817L106.007 132.207L107.067 129.073L116.861 128.017L116.012 130.526L114.207 130.688Z" fill="#7D8082"/>
<path d="M120.616 114.761L119.287 117.218L117.236 116.111L118.566 113.654L120.616 114.761Z" fill="#7D8082"/>
<path d="M123.38 98.5145L129.115 91.2618L136.133 96.7934L134.601 98.7312L129.13 94.419L126.459 97.796L131.93 102.108L130.398 104.046L123.38 98.5145Z" fill="#7D8082"/>
<path d="M137.101 82.7937C137.844 82.0667 138.56 81.5626 139.248 81.2815C139.936 80.9891 140.577 80.8545 141.171 80.8776C141.76 80.8951 142.297 81.0307 142.782 81.2845C143.266 81.5383 143.68 81.8393 144.022 82.1877L144.274 82.4447C144.611 82.7874 144.904 83.2059 145.155 83.7003C145.399 84.189 145.53 84.733 145.547 85.3323C145.558 85.9259 145.417 86.5688 145.121 87.261C144.826 87.9419 144.307 88.6459 143.564 89.3729L143.187 89.742C142.689 90.2286 142.204 90.6136 141.732 90.8969C141.253 91.1746 140.793 91.3732 140.35 91.493C139.913 91.6071 139.496 91.6564 139.1 91.641C138.698 91.6198 138.322 91.5509 137.972 91.4342C137.622 91.3062 137.3 91.1446 137.008 90.9493C136.715 90.7541 136.457 90.5422 136.232 90.3138L135.98 90.0568C135.75 89.8226 135.543 89.5605 135.359 89.2703C135.169 88.9744 135.016 88.6534 134.9 88.3074C134.79 87.9558 134.732 87.5821 134.724 87.1863C134.711 86.7849 134.768 86.37 134.897 85.9418C135.031 85.5079 135.245 85.058 135.538 84.5919C135.832 84.1258 136.227 83.6494 136.724 83.1628L137.101 82.7937ZM142.255 84.0515C142.064 83.8574 141.836 83.6882 141.571 83.5441C141.306 83.3888 141.01 83.3037 140.682 83.289C140.353 83.2742 139.993 83.3524 139.601 83.5236C139.214 83.6891 138.795 83.9928 138.343 84.4346C137.897 84.8709 137.585 85.2831 137.406 85.6712C137.232 86.0538 137.147 86.4118 137.149 86.7453C137.157 87.0733 137.234 87.3736 137.379 87.6465C137.523 87.908 137.691 88.1359 137.882 88.33L138 88.45C138.19 88.6442 138.421 88.8161 138.691 88.9659C138.956 89.11 139.256 89.1923 139.59 89.2127C139.924 89.2219 140.287 89.1465 140.679 88.9867C141.077 88.8213 141.496 88.5232 141.936 88.0926C142.382 87.6563 142.692 87.2413 142.865 86.8474C143.039 86.4536 143.122 86.0927 143.113 85.7647C143.1 85.4311 143.02 85.1335 142.875 84.872C142.731 84.5991 142.563 84.3656 142.372 84.1715L142.255 84.0515Z" fill="#7D8082"/>
<path d="M151.402 71.189L156.851 67.6162C157.386 67.2652 157.86 67.0314 158.271 66.9146C158.69 66.7934 159.054 66.7505 159.365 66.786C159.676 66.8215 159.938 66.922 160.153 67.0876C160.37 67.2421 160.546 67.4229 160.683 67.6301L160.755 67.7403C160.909 67.9742 160.999 68.2121 161.024 68.4539C161.052 68.6847 161.035 68.9063 160.974 69.1187C160.919 69.3267 160.834 69.5167 160.717 69.6888C160.6 69.8609 160.478 70.0031 160.351 70.1152C160.581 70.0127 160.828 69.9368 161.092 69.8877C161.359 69.8275 161.621 69.8183 161.879 69.8601C162.143 69.8974 162.398 69.9934 162.643 70.1482C162.891 70.2918 163.114 70.514 163.312 70.8147L163.385 70.925C163.552 71.1789 163.675 71.4669 163.753 71.7889C163.833 72.0999 163.828 72.4335 163.737 72.7898C163.648 73.135 163.454 73.5017 163.154 73.8897C162.85 74.2711 162.396 74.6592 161.794 75.054L156.315 78.6466L151.402 71.189ZM154.493 71.3872L155.371 72.7204L158.452 70.7004C158.766 70.4942 158.939 70.2903 158.969 70.0888C158.994 69.8806 158.95 69.6896 158.835 69.5159L158.822 69.4958C158.703 69.3154 158.542 69.2012 158.338 69.1532C158.136 69.0941 157.881 69.1654 157.574 69.3672L154.493 71.3872ZM156.335 74.1838L157.306 75.6573L160.547 73.532C160.728 73.4136 160.865 73.2948 160.959 73.1758C161.049 73.05 161.105 72.9318 161.128 72.8211C161.153 72.6994 161.15 72.5863 161.12 72.4819C161.092 72.3664 161.047 72.2619 160.985 72.1683L160.959 72.1282C160.897 72.0347 160.823 71.9587 160.737 71.9005C160.653 71.8312 160.554 71.7906 160.441 71.7787C160.335 71.7624 160.21 71.777 160.068 71.8226C159.921 71.8614 159.757 71.9401 159.576 72.0585L156.335 74.1838Z" fill="#7D8082"/>
<path d="M172.097 69.5762C171.487 69.8762 170.918 70.08 170.391 70.1876C169.864 70.2951 169.378 70.3332 168.934 70.3018C168.494 70.2597 168.09 70.1643 167.722 70.0154C167.361 69.863 167.036 69.6751 166.747 69.4516C166.461 69.2175 166.216 68.9639 166.009 68.691C165.803 68.418 165.632 68.1452 165.498 67.8727L165.338 67.55C165.2 67.2703 165.085 66.9657 164.994 66.6362C164.902 66.3068 164.854 65.9651 164.849 65.6111C164.847 65.2465 164.895 64.875 164.994 64.4967C165.1 64.1148 165.274 63.7441 165.516 63.3846C165.761 63.0143 166.089 62.6571 166.499 62.3129C166.905 61.9615 167.414 61.6358 168.024 61.3357L168.52 61.0922C169.36 60.6792 170.11 60.4264 170.769 60.334C171.436 60.2381 172.02 60.2543 172.521 60.3825C173.021 60.5107 173.441 60.7279 173.78 61.0338C174.115 61.3326 174.377 61.6721 174.564 62.0522L174.575 62.0737L172.291 63.1963C172.256 63.1424 172.174 63.0579 172.045 62.9427C171.914 62.8203 171.722 62.7226 171.472 62.6496C171.222 62.5765 170.91 62.5603 170.538 62.6008C170.161 62.6342 169.707 62.7816 169.176 63.0428C168.688 63.2828 168.31 63.5486 168.044 63.8401C167.774 64.1244 167.589 64.4199 167.491 64.7267C167.389 65.0264 167.361 65.3301 167.406 65.6378C167.454 65.9348 167.544 66.216 167.675 66.4814L167.75 66.632C167.874 66.883 168.045 67.12 168.262 67.343C168.476 67.5588 168.738 67.7285 169.049 67.852C169.36 67.9754 169.716 68.0277 170.117 68.0088C170.515 67.9826 170.958 67.8496 171.446 67.6095C171.978 67.3483 172.372 67.0791 172.627 66.8018C172.89 66.521 173.065 66.2612 173.152 66.0222C173.243 65.7725 173.277 65.56 173.252 65.3847C173.232 65.1987 173.209 65.0716 173.185 65.0036L175.468 63.881L175.484 63.9133C175.665 64.279 175.774 64.689 175.811 65.1433C175.855 65.594 175.779 66.0636 175.583 66.5521C175.391 67.03 175.057 67.5105 174.582 67.9937C174.103 68.4698 173.44 68.9161 172.593 69.3326L172.097 69.5762Z" fill="#7D8082"/>
<path d="M185.554 54.5294L186.187 56.3668L180.758 58.2261L181.231 59.5984L186.49 57.7975L187.147 59.7029L181.888 61.5039L182.392 62.967L187.89 61.0843L188.531 62.9444L180.727 65.6166L177.818 57.1783L185.554 54.5294Z" fill="#7D8082"/>
<path d="M200.665 53.937L196.767 60.862L194.344 61.3609L192.529 52.6239L194.952 52.1251L196.172 57.9967L200.069 51.0717L202.492 50.5728L204.307 59.3097L201.884 59.8086L200.665 53.937ZM197.11 50.9952C196.639 51.0921 196.245 51.1039 195.927 51.0305C195.608 50.9493 195.345 50.8278 195.14 50.666C194.941 50.4947 194.788 50.3099 194.681 50.1114C194.583 49.9113 194.517 49.733 194.484 49.5764L194.477 49.5412L196.194 49.1876C196.212 49.233 196.236 49.2893 196.266 49.3565C196.305 49.4221 196.354 49.4853 196.416 49.5461C196.484 49.5974 196.566 49.6377 196.662 49.6669C196.758 49.6961 196.881 49.6954 197.03 49.6647C197.171 49.6357 197.276 49.5896 197.344 49.5265C197.421 49.4617 197.476 49.3932 197.51 49.3209C197.542 49.2408 197.559 49.1638 197.56 49.0901C197.569 49.0148 197.573 48.9529 197.571 48.9043L199.276 48.5532L199.284 48.5884C199.316 48.745 199.319 48.9362 199.292 49.1621C199.266 49.388 199.187 49.6205 199.057 49.8596C198.933 50.0892 198.741 50.3043 198.48 50.505C198.225 50.6962 197.886 50.8354 197.463 50.9226L197.11 50.9952Z" fill="#7D8082"/>
<path d="M218.757 55.3804L218.777 58.2341L216.302 58.2484L216.24 49.3278L222.295 49.2928C223 49.2887 223.589 49.3612 224.062 49.5104C224.536 49.6515 224.918 49.8532 225.208 50.1153C225.498 50.3694 225.704 50.68 225.827 51.047C225.95 51.406 226.012 51.8013 226.015 52.2329L226.016 52.3648C226.019 52.7885 225.958 53.1845 225.832 53.553C225.715 53.9134 225.513 54.2263 225.226 54.4917C224.94 54.7572 224.561 54.9672 224.089 55.1218C223.618 55.2764 223.034 55.3557 222.337 55.3598L218.757 55.3804ZM218.743 53.3901L222.143 53.3704C222.599 53.3678 222.931 53.278 223.138 53.1009C223.345 52.9158 223.447 52.6635 223.445 52.3437L223.445 52.2958C223.443 51.984 223.337 51.7368 223.127 51.5542C222.918 51.3715 222.585 51.2815 222.129 51.2842L218.729 51.3038L218.743 53.3901Z" fill="#7D8082"/>
<path d="M237.123 50.217C238.157 50.3426 238.999 50.5859 239.649 50.9467C240.308 51.3006 240.814 51.7164 241.168 52.1942C241.523 52.6641 241.752 53.167 241.857 53.7031C241.962 54.2392 241.985 54.7492 241.926 55.2332L241.883 55.5903C241.825 56.0664 241.681 56.5561 241.451 57.0595C241.222 57.555 240.878 57.9963 240.419 58.3834C239.962 58.7626 239.37 59.053 238.644 59.2545C237.927 59.4491 237.051 59.4836 236.018 59.3579L235.493 59.2941C234.801 59.21 234.196 59.0721 233.679 58.8804C233.163 58.6807 232.719 58.4457 232.348 58.1752C231.986 57.9056 231.686 57.6116 231.451 57.2931C231.216 56.9666 231.035 56.6306 230.907 56.2849C230.788 55.9323 230.714 55.5811 230.684 55.2312C230.653 54.8813 230.657 54.5476 230.696 54.2303L230.739 53.8732C230.778 53.5479 230.854 53.2229 230.966 52.8983C231.078 52.5658 231.234 52.2466 231.432 51.9406C231.639 51.6356 231.894 51.3567 232.199 51.1039C232.505 50.8431 232.866 50.6293 233.281 50.4625C233.705 50.2966 234.191 50.1825 234.739 50.1203C235.287 50.0581 235.907 50.0691 236.598 50.1532L237.123 50.217ZM239.362 55.0182C239.395 54.7484 239.385 54.4653 239.332 54.1691C239.288 53.8658 239.169 53.5816 238.975 53.3165C238.781 53.0514 238.495 52.8193 238.115 52.6202C237.744 52.4221 237.244 52.2848 236.616 52.2085C235.996 52.1331 235.478 52.1466 235.062 52.249C234.654 52.3524 234.321 52.5091 234.061 52.7191C233.81 52.9301 233.623 53.1771 233.5 53.46C233.386 53.736 233.312 54.0089 233.28 54.2787L233.259 54.4453C233.227 54.7151 233.236 55.0021 233.288 55.3063C233.341 55.6026 233.464 55.8873 233.657 56.1603C233.859 56.4264 234.145 56.6625 234.515 56.8685C234.894 57.0756 235.389 57.2163 236.001 57.2907C236.622 57.3661 237.14 57.3486 237.557 57.2383C237.973 57.1279 238.308 56.9672 238.559 56.7563C238.811 56.5373 238.995 56.2899 239.109 56.0139C239.232 55.7309 239.309 55.4546 239.342 55.1848L239.362 55.0182Z" fill="#7D8082"/>
<path d="M249.283 61.9528C248.623 61.7859 248.058 61.5727 247.586 61.3134C247.115 61.054 246.72 60.7687 246.402 60.4574C246.094 60.1404 245.848 59.8062 245.664 59.4547C245.488 59.1051 245.363 58.7519 245.288 58.3949C245.222 58.0321 245.2 57.6802 245.22 57.339C245.24 56.9979 245.288 56.6801 245.362 56.3857L245.45 56.037C245.527 55.7348 245.637 55.4288 245.781 55.1191C245.926 54.8094 246.111 54.5182 246.337 54.2456C246.573 53.9672 246.851 53.716 247.172 53.4922C247.501 53.2703 247.874 53.1009 248.292 52.984C248.719 52.8613 249.201 52.8018 249.737 52.8055C250.275 52.8014 250.874 52.8829 251.534 53.0498L252.07 53.1853C252.979 53.4151 253.714 53.7083 254.277 54.0649C254.847 54.4235 255.281 54.8136 255.58 55.2353C255.878 55.657 256.057 56.0938 256.116 56.5457C256.177 56.9898 256.156 57.4173 256.052 57.8279L256.046 57.8512L253.577 57.2266C253.585 57.1627 253.577 57.0454 253.554 56.8747C253.533 56.6963 253.451 56.4982 253.308 56.2806C253.164 56.063 252.938 55.849 252.627 55.6386C252.319 55.4205 251.877 55.2388 251.303 55.0934C250.775 54.9599 250.314 54.9177 249.922 54.9668C249.531 55.0082 249.199 55.1137 248.925 55.2834C248.653 55.4454 248.434 55.658 248.268 55.9211C248.112 56.1784 247.998 56.4504 247.925 56.7371L247.884 56.8999C247.816 57.1711 247.792 57.4618 247.812 57.7721C247.835 58.0746 247.925 58.3734 248.081 58.6686C248.238 58.9638 248.475 59.2341 248.793 59.4794C249.113 59.7169 249.537 59.9025 250.065 60.036C250.64 60.1814 251.115 60.2314 251.49 60.1861C251.873 60.1427 252.175 60.0584 252.397 59.9331C252.628 59.802 252.791 59.662 252.887 59.513C252.992 59.3583 253.058 59.247 253.083 59.1793L255.552 59.8038L255.544 59.8387C255.444 60.2338 255.26 60.6161 254.993 60.9856C254.734 61.357 254.371 61.665 253.905 61.9097C253.448 62.1486 252.881 62.298 252.205 62.3578C251.531 62.4099 250.736 62.3201 249.819 62.0883L249.283 61.9528Z" fill="#7D8082"/>
<path d="M262.823 66.395C262.189 66.146 261.655 65.863 261.22 65.5461C260.785 65.2293 260.43 64.8964 260.154 64.5476C259.888 64.1942 259.687 63.8316 259.549 63.4597C259.419 63.0908 259.339 62.7245 259.31 62.361C259.291 61.993 259.314 61.6411 259.377 61.3053C259.44 60.9695 259.528 60.6603 259.639 60.3776L259.771 60.043C259.885 59.7529 260.033 59.4634 260.216 59.1745C260.398 58.8856 260.619 58.6202 260.878 58.3783C261.147 58.132 261.455 57.9181 261.801 57.7367C262.156 57.5582 262.548 57.4374 262.977 57.3743C263.417 57.3067 263.902 57.3086 264.434 57.38C264.968 57.444 265.552 57.6005 266.186 57.8495L266.7 58.0517C267.572 58.3944 268.265 58.7782 268.778 59.2031C269.298 59.6308 269.679 60.0726 269.922 60.5286C270.164 60.9845 270.286 61.4403 270.287 61.896C270.292 62.3442 270.216 62.7655 270.061 63.1596L270.052 63.182L267.682 62.2503C267.698 62.1879 267.705 62.0706 267.704 61.8984C267.706 61.7188 267.649 61.512 267.535 61.2781C267.42 61.0441 267.223 60.8032 266.941 60.5553C266.663 60.3 266.248 60.0639 265.697 59.8471C265.19 59.6479 264.738 59.5478 264.343 59.5469C263.95 59.5386 263.607 59.6013 263.313 59.7349C263.023 59.8611 262.778 60.0443 262.581 60.2843C262.393 60.5198 262.245 60.7751 262.137 61.0503L262.076 61.2065C261.973 61.4668 261.913 61.7521 261.894 62.0625C261.878 62.3654 261.929 62.6731 262.047 62.9857C262.165 63.2983 262.366 63.5963 262.65 63.8798C262.938 64.1559 263.335 64.3936 263.842 64.5928C264.393 64.8096 264.858 64.9192 265.236 64.9217C265.621 64.9271 265.932 64.8817 266.167 64.7854C266.414 64.6847 266.594 64.5665 266.707 64.4308C266.831 64.2906 266.91 64.1885 266.944 64.1245L269.315 65.0562L269.301 65.0896C269.152 65.4689 268.922 65.8249 268.61 66.1576C268.306 66.4931 267.907 66.7528 267.413 66.9365C266.929 67.1156 266.348 67.1922 265.67 67.166C264.994 67.1325 264.217 66.9428 263.337 66.5971L262.823 66.395Z" fill="#7D8082"/>
<path d="M281.211 68.5507L273.742 71.2944L271.572 70.1053L275.866 62.2863L278.036 63.4754L275.15 68.7301L282.619 65.9864L284.79 67.1755L280.495 74.9945L278.325 73.8054L281.211 68.5507Z" fill="#7D8082"/>
<path d="M293.66 76.9755L285.902 78.7524L283.9 77.2987L289.152 70.0867L291.154 71.5404L287.624 76.3872L295.382 74.6102L297.385 76.064L292.132 83.276L290.13 81.8223L293.66 76.9755Z" fill="#7D8082"/>
<path d="M304.521 91.5096L302.573 89.5013L304.247 87.8843L306.195 89.8926L304.521 91.5096Z" fill="#7D8082"/>
<path d="M319.185 99.0386L322.87 104.415C323.232 104.943 323.476 105.411 323.601 105.82C323.73 106.235 323.78 106.598 323.751 106.909C323.721 107.22 323.626 107.484 323.464 107.701C323.314 107.92 323.136 108.099 322.931 108.239L322.822 108.313C322.591 108.471 322.354 108.564 322.112 108.594C321.882 108.625 321.659 108.612 321.445 108.555C321.236 108.504 321.044 108.422 320.869 108.308C320.695 108.195 320.55 108.076 320.435 107.951C320.542 108.178 320.623 108.423 320.677 108.686C320.743 108.952 320.757 109.213 320.72 109.471C320.688 109.735 320.597 109.991 320.447 110.239C320.308 110.489 320.089 110.715 319.792 110.918L319.683 110.992C319.432 111.164 319.146 111.291 318.825 111.375C318.515 111.46 318.181 111.461 317.822 111.376C317.474 111.293 317.103 111.106 316.709 110.813C316.321 110.516 315.923 110.07 315.516 109.476L311.81 104.07L319.185 99.0386ZM319.047 102.126L317.728 103.026L319.812 106.066C320.025 106.376 320.232 106.544 320.435 106.571C320.644 106.593 320.834 106.545 321.006 106.428L321.026 106.414C321.204 106.293 321.315 106.13 321.36 105.925C321.415 105.723 321.338 105.47 321.13 105.166L319.047 102.126ZM316.281 104.013L314.824 105.008L317.016 108.206C317.138 108.384 317.26 108.519 317.381 108.61C317.509 108.698 317.628 108.752 317.74 108.773C317.862 108.796 317.975 108.791 318.079 108.759C318.194 108.729 318.298 108.682 318.391 108.619L318.43 108.592C318.523 108.529 318.598 108.454 318.654 108.367C318.722 108.282 318.761 108.183 318.77 108.069C318.785 107.963 318.768 107.839 318.719 107.697C318.677 107.552 318.595 107.39 318.473 107.211L316.281 104.013Z" fill="#7D8082"/>
<path d="M331.974 126.143L330.455 122.617C329.337 123.096 328.349 123.484 327.493 123.782C326.636 124.079 325.952 124.25 325.44 124.296C325.213 124.315 324.985 124.312 324.757 124.288C324.528 124.264 324.303 124.195 324.08 124.082C323.857 123.969 323.642 123.795 323.437 123.561C323.232 123.327 323.04 123.004 322.863 122.593L322.512 121.778L324.443 120.95L324.476 121.028C324.622 121.365 324.794 121.583 324.993 121.681C325.195 121.786 325.395 121.835 325.592 121.829C325.704 121.824 325.825 121.812 325.955 121.791C326.085 121.77 326.242 121.729 326.425 121.668C326.618 121.611 326.847 121.535 327.111 121.439C327.382 121.34 327.71 121.213 328.096 121.056C328.489 120.897 328.947 120.705 329.469 120.481C330.002 120.262 330.625 119.999 331.339 119.693L334.762 127.638L326.552 131.155L325.574 128.885L331.974 126.143Z" fill="#7D8082"/>
<path d="M336.18 148.782C335.716 148.908 335.207 148.958 334.653 148.934C334.109 148.915 333.572 148.77 333.042 148.499C332.519 148.226 332.03 147.799 331.573 147.218C331.126 146.643 330.77 145.866 330.503 144.886L330.365 144.376C330.129 143.512 330.037 142.746 330.088 142.078C330.14 141.418 330.283 140.845 330.516 140.359C330.749 139.874 331.05 139.47 331.418 139.147C331.797 138.829 332.194 138.581 332.61 138.403L332.244 137.06L328.778 137.996L328.129 135.612L336.755 133.283L337.403 135.667L334.204 136.531L334.578 137.908C335.019 137.881 335.466 137.922 335.918 138.031C336.379 138.139 336.818 138.348 337.234 138.658C337.658 138.966 338.046 139.387 338.399 139.921C338.754 140.463 339.043 141.147 339.268 141.972L339.407 142.482C339.673 143.462 339.759 144.312 339.665 145.033C339.581 145.76 339.383 146.373 339.07 146.871C338.765 147.368 338.383 147.761 337.923 148.051C337.464 148.349 336.999 148.561 336.528 148.689L336.18 148.782ZM335.761 146.237C336.024 146.166 336.284 146.054 336.541 145.902C336.806 145.747 337.026 145.535 337.202 145.264C337.377 144.993 337.487 144.652 337.534 144.242C337.582 143.84 337.526 143.346 337.366 142.759C337.209 142.18 337.007 141.726 336.759 141.395C336.513 141.072 336.245 140.834 335.955 140.68C335.666 140.535 335.368 140.462 335.061 140.462C334.762 140.46 334.481 140.494 334.218 140.565L334.056 140.609C333.793 140.68 333.529 140.792 333.264 140.947C333.009 141.107 332.79 141.323 332.607 141.596C332.434 141.875 332.32 142.217 332.264 142.621C332.21 143.033 332.261 143.525 332.416 144.096C332.574 144.674 332.78 145.128 333.035 145.457C333.291 145.785 333.563 146.023 333.851 146.168C334.147 146.312 334.445 146.385 334.744 146.387C335.051 146.387 335.336 146.351 335.599 146.28L335.761 146.237Z" fill="#7D8082"/>
<path d="M341.051 151.47L342.192 160.609L340.237 160.85L339.402 154.163L338.257 154.304L338.723 158.028C338.809 158.719 338.809 159.303 338.724 159.78C338.646 160.257 338.498 160.65 338.278 160.959C338.066 161.267 337.797 161.502 337.47 161.663C337.143 161.824 336.777 161.93 336.372 161.98L336.241 161.996C335.836 162.046 335.45 162.029 335.085 161.945C334.728 161.868 334.405 161.707 334.116 161.461C333.827 161.214 333.582 160.866 333.38 160.416C333.18 159.973 333.037 159.415 332.953 158.74L332.182 152.564L341.051 151.47ZM334.884 158.309C334.937 158.729 335.06 159.032 335.252 159.218C335.445 159.404 335.676 159.48 335.946 159.446L336.03 159.436C336.292 159.404 336.49 159.275 336.623 159.049C336.756 158.823 336.797 158.5 336.744 158.079L336.302 154.545L334.443 154.775L334.884 158.309Z" fill="#7D8082"/>
<path d="M342.63 172.273C342.627 173.312 342.485 174.175 342.202 174.861C341.928 175.556 341.574 176.106 341.14 176.512C340.715 176.918 340.241 177.203 339.72 177.369C339.199 177.535 338.694 177.617 338.206 177.615L337.845 177.613C337.365 177.611 336.861 177.525 336.332 177.356C335.812 177.186 335.333 176.896 334.893 176.486C334.462 176.077 334.103 175.524 333.817 174.827C333.539 174.139 333.401 173.275 333.404 172.236L333.406 171.708C333.408 171.013 333.474 170.398 333.603 169.863C333.741 169.328 333.923 168.861 334.148 168.462C334.374 168.071 334.631 167.74 334.92 167.47C335.217 167.199 335.53 166.981 335.859 166.814C336.196 166.656 336.536 166.541 336.881 166.47C337.226 166.4 337.558 166.365 337.878 166.367L338.239 166.368C338.567 166.369 338.899 166.407 339.236 166.48C339.58 166.553 339.916 166.671 340.244 166.832C340.571 167.001 340.879 167.222 341.167 167.495C341.462 167.768 341.718 168.101 341.933 168.493C342.148 168.894 342.319 169.362 342.445 169.898C342.572 170.434 342.634 171.05 342.632 171.745L342.63 172.273ZM338.117 175.049C338.389 175.05 338.67 175.007 338.958 174.92C339.255 174.841 339.524 174.691 339.765 174.468C340.006 174.245 340.203 173.934 340.356 173.535C340.509 173.144 340.587 172.632 340.589 172.001C340.591 171.377 340.516 170.866 340.365 170.465C340.214 170.073 340.019 169.76 339.779 169.528C339.54 169.303 339.272 169.146 338.976 169.057C338.688 168.976 338.407 168.935 338.135 168.934L337.967 168.933C337.695 168.932 337.41 168.975 337.114 169.061C336.825 169.148 336.556 169.303 336.307 169.526C336.066 169.757 335.865 170.068 335.704 170.459C335.543 170.858 335.461 171.365 335.459 171.98C335.457 172.604 335.536 173.116 335.695 173.516C335.854 173.916 336.053 174.229 336.293 174.454C336.541 174.679 336.808 174.831 337.096 174.913C337.393 175.002 337.677 175.047 337.949 175.048L338.117 175.049Z" fill="#7D8082"/>
<path d="M342.037 182.238L341.576 185.491L335.183 187.451L340.767 191.2L340.335 194.251L331.485 192.992L331.823 190.606L337.616 191.43L332.203 187.923L332.474 186.012L338.647 184.154L332.855 183.329L333.188 180.979L342.037 182.238Z" fill="#7D8082"/>
<path d="M326.437 209.406C326.67 208.767 326.939 208.227 327.245 207.786C327.551 207.344 327.875 206.982 328.217 206.698C328.564 206.424 328.922 206.214 329.29 206.068C329.656 205.929 330.021 205.841 330.384 205.803C330.753 205.775 331.106 205.789 331.444 205.844C331.782 205.899 332.094 205.978 332.38 206.082L332.718 206.206C333.012 206.312 333.306 206.453 333.6 206.629C333.894 206.804 334.166 207.017 334.415 207.27C334.669 207.532 334.891 207.834 335.082 208.176C335.27 208.525 335.402 208.913 335.476 209.34C335.556 209.777 335.567 210.262 335.509 210.794C335.46 211.328 335.318 211.915 335.086 212.553L334.897 213.071C334.577 213.95 334.211 214.65 333.799 215.172C333.384 215.702 332.952 216.093 332.502 216.346C332.051 216.599 331.598 216.732 331.142 216.744C330.693 216.759 330.269 216.694 329.87 216.549L329.847 216.541L330.718 214.153C330.781 214.167 330.898 214.172 331.071 214.167C331.251 214.164 331.456 214.103 331.688 213.983C331.919 213.863 332.155 213.66 332.396 213.373C332.644 213.089 332.869 212.669 333.072 212.114C333.258 211.603 333.346 211.15 333.337 210.756C333.335 210.364 333.263 210.023 333.121 209.733C332.987 209.446 332.797 209.207 332.551 209.015C332.31 208.834 332.051 208.693 331.772 208.591L331.614 208.534C331.351 208.438 331.063 208.385 330.752 208.373C330.448 208.365 330.141 208.423 329.831 208.549C329.522 208.674 329.228 208.882 328.952 209.173C328.683 209.466 328.456 209.868 328.27 210.379C328.067 210.934 327.97 211.401 327.977 211.778C327.982 212.162 328.036 212.471 328.138 212.704C328.246 212.947 328.369 213.124 328.508 213.234C328.652 213.354 328.756 213.43 328.821 213.463L327.951 215.851L327.917 215.838C327.533 215.699 327.17 215.477 326.829 215.174C326.485 214.879 326.214 214.487 326.017 213.999C325.825 213.52 325.733 212.942 325.741 212.265C325.756 211.59 325.926 210.81 326.249 209.924L326.437 209.406Z" fill="#7D8082"/>
<path d="M328.507 227.265C328.03 228.188 327.51 228.891 326.945 229.373C326.384 229.866 325.818 230.195 325.246 230.359C324.682 230.527 324.13 230.566 323.59 230.477C323.05 230.387 322.563 230.231 322.129 230.007L321.808 229.842C321.381 229.622 320.971 229.316 320.578 228.925C320.193 228.537 319.897 228.061 319.693 227.497C319.496 226.937 319.428 226.282 319.491 225.532C319.557 224.793 319.829 223.962 320.306 223.038L320.548 222.57C320.867 221.952 321.206 221.434 321.566 221.017C321.933 220.604 322.307 220.271 322.69 220.018C323.069 219.773 323.449 219.596 323.83 219.486C324.218 219.381 324.597 219.328 324.966 219.33C325.338 219.342 325.694 219.395 326.033 219.489C326.372 219.582 326.684 219.703 326.969 219.849L327.289 220.014C327.581 220.165 327.86 220.349 328.126 220.567C328.399 220.789 328.645 221.046 328.864 221.338C329.079 221.638 329.252 221.974 329.383 222.348C329.522 222.725 329.598 223.137 329.61 223.584C329.619 224.038 329.558 224.533 329.426 225.067C329.294 225.602 329.068 226.178 328.749 226.796L328.507 227.265ZM323.221 227.683C323.463 227.808 323.732 227.897 324.029 227.951C324.329 228.016 324.637 228.004 324.953 227.915C325.27 227.826 325.587 227.639 325.906 227.354C326.221 227.076 326.523 226.656 326.813 226.095C327.099 225.541 327.266 225.051 327.314 224.627C327.359 224.209 327.327 223.842 327.22 223.526C327.109 223.217 326.942 222.956 326.719 222.742C326.499 222.539 326.269 222.375 326.026 222.25L325.877 222.173C325.635 222.048 325.362 221.957 325.058 221.9C324.762 221.846 324.452 221.861 324.128 221.946C323.808 222.042 323.487 222.228 323.165 222.502C322.839 222.784 322.535 223.198 322.253 223.745C321.967 224.299 321.803 224.79 321.762 225.219C321.721 225.647 321.756 226.016 321.867 226.325C321.985 226.637 322.154 226.895 322.373 227.098C322.597 227.312 322.829 227.481 323.071 227.606L323.221 227.683Z" fill="#7D8082"/>
<path d="M313.264 234.545C313.65 233.985 314.046 233.53 314.453 233.18C314.861 232.829 315.266 232.56 315.668 232.371C316.073 232.193 316.472 232.08 316.866 232.031C317.256 231.988 317.631 231.994 317.992 232.048C318.356 232.114 318.694 232.216 319.007 232.354C319.321 232.492 319.603 232.647 319.854 232.82L320.151 233.024C320.408 233.201 320.657 233.411 320.898 233.654C321.138 233.897 321.348 234.172 321.525 234.479C321.705 234.797 321.844 235.145 321.943 235.523C322.037 235.908 322.067 236.317 322.032 236.749C321.998 237.191 321.887 237.663 321.698 238.163C321.515 238.668 321.23 239.2 320.844 239.76L320.531 240.214C320 240.984 319.469 241.569 318.939 241.971C318.404 242.38 317.887 242.65 317.387 242.781C316.888 242.913 316.416 242.928 315.971 242.826C315.532 242.728 315.138 242.559 314.788 242.318L314.769 242.304L316.212 240.212C316.27 240.242 316.383 240.276 316.551 240.314C316.726 240.356 316.94 240.349 317.194 240.291C317.448 240.233 317.728 240.095 318.033 239.878C318.345 239.666 318.669 239.316 319.005 238.829C319.314 238.382 319.513 237.966 319.603 237.582C319.7 237.202 319.716 236.854 319.652 236.538C319.595 236.227 319.471 235.948 319.281 235.701C319.094 235.465 318.878 235.263 318.634 235.095L318.495 235C318.264 234.841 318 234.717 317.701 234.628C317.409 234.544 317.097 234.523 316.766 234.567C316.434 234.61 316.098 234.738 315.757 234.95C315.423 235.166 315.101 235.498 314.793 235.946C314.457 236.433 314.245 236.859 314.157 237.226C314.065 237.599 314.039 237.912 314.08 238.163C314.123 238.425 314.198 238.627 314.304 238.768C314.413 238.921 314.495 239.021 314.55 239.068L313.106 241.161L313.076 241.14C312.74 240.909 312.445 240.604 312.19 240.225C311.931 239.853 311.768 239.406 311.7 238.884C311.634 238.373 311.691 237.79 311.869 237.137C312.054 236.488 312.415 235.775 312.95 234.999L313.264 234.545Z" fill="#7D8082"/>
<path d="M310.894 248.926L313.183 246.338L314.714 247.688L308.509 254.705L306.977 253.355L309.265 250.768L304.093 246.21L305.722 244.368L310.894 248.926Z" fill="#7D8082"/>
<path d="M300.96 261.888C300.183 262.578 299.444 263.048 298.744 263.296C298.042 263.555 297.396 263.659 296.803 263.607C296.215 263.561 295.686 263.4 295.214 263.124C294.742 262.847 294.343 262.527 294.018 262.162L293.778 261.894C293.459 261.535 293.186 261.103 292.959 260.597C292.738 260.098 292.634 259.548 292.646 258.949C292.663 258.355 292.835 257.72 293.163 257.043C293.491 256.377 294.043 255.698 294.82 255.008L295.215 254.657C295.735 254.195 296.238 253.833 296.724 253.573C297.215 253.319 297.685 253.142 298.133 253.044C298.575 252.951 298.993 252.921 299.388 252.955C299.789 252.996 300.161 253.083 300.505 253.216C300.849 253.36 301.162 253.537 301.445 253.746C301.728 253.955 301.976 254.179 302.189 254.418L302.429 254.687C302.647 254.932 302.842 255.203 303.012 255.502C303.187 255.807 303.324 256.135 303.423 256.486C303.516 256.842 303.557 257.218 303.546 257.614C303.54 258.015 303.462 258.427 303.313 258.849C303.158 259.276 302.923 259.715 302.608 260.166C302.293 260.618 301.875 261.075 301.355 261.537L300.96 261.888ZM295.873 260.385C296.054 260.588 296.274 260.768 296.531 260.925C296.788 261.092 297.08 261.192 297.408 261.222C297.735 261.252 298.099 261.191 298.499 261.039C298.893 260.892 299.326 260.609 299.799 260.189C300.265 259.775 300.597 259.378 300.794 258.999C300.986 258.625 301.089 258.272 301.102 257.938C301.11 257.611 301.048 257.307 300.916 257.027C300.784 256.759 300.627 256.524 300.446 256.321L300.334 256.195C300.153 255.992 299.931 255.809 299.668 255.647C299.41 255.49 299.115 255.394 298.783 255.357C298.449 255.332 298.083 255.39 297.683 255.531C297.278 255.677 296.845 255.955 296.385 256.364C295.919 256.779 295.589 257.178 295.397 257.563C295.205 257.949 295.105 258.305 295.097 258.633C295.095 258.967 295.16 259.268 295.292 259.536C295.424 259.815 295.58 260.057 295.761 260.26L295.873 260.385Z" fill="#7D8082"/>
<path d="M285.526 266.092L286.205 261.949L288.681 260.257L287.931 264.782C288.719 264.389 289.43 264.238 290.064 264.328C290.697 264.429 291.228 264.793 291.658 265.419L291.726 265.518C291.957 265.855 292.107 266.208 292.177 266.577C292.244 266.958 292.221 267.341 292.108 267.729C291.989 268.12 291.779 268.506 291.477 268.887C291.174 269.279 290.764 269.65 290.249 270.003L285.266 273.408L280.211 266.046L282.252 264.651L283.971 267.155L285.526 266.092ZM286.192 270.39L289.065 268.427C289.389 268.206 289.6 267.969 289.699 267.718C289.791 267.47 289.745 267.212 289.559 266.941L289.539 266.911C289.439 266.766 289.329 266.662 289.208 266.599C289.087 266.537 288.958 266.504 288.82 266.501C288.687 266.505 288.546 266.533 288.398 266.586C288.255 266.645 288.11 266.725 287.965 266.824L285.092 268.787L286.192 270.39Z" fill="#7D8082"/>
<path d="M271.134 274.95L275.57 272.683L273.93 269.492L276.132 268.367L280.212 276.308L278.011 277.433L276.497 274.487L272.061 276.754L273.575 279.7L271.373 280.825L267.293 272.884L269.494 271.759L271.134 274.95Z" fill="#7D8082"/>
<path d="M258.064 282.758L260.934 275.349L263.261 274.512L266.302 282.904L263.975 283.741L261.931 278.102L259.061 285.51L256.734 286.348L253.693 277.956L256.02 277.118L258.064 282.758Z" fill="#7D8082"/>
<path d="M243.51 286.501L247.298 279.516L249.713 278.979L251.664 287.687L249.249 288.223L247.938 282.372L244.15 289.357L241.735 289.893L239.783 281.185L242.198 280.649L243.51 286.501Z" fill="#7D8082"/>
<path d="M269.41 158.655C269.453 158.618 269.468 158.592 269.486 158.59C273.015 157.676 276.445 156.282 280.118 156.078C283.851 155.87 287.023 157.626 288.833 161.263C290.035 163.681 290.581 166.206 290.251 168.897C289.912 171.612 288.574 173.704 286.354 175.104C285.163 175.858 283.818 176.429 282.473 176.852C280.114 177.594 277.694 178.167 275.298 178.809C275.159 178.846 275.015 178.866 274.828 178.897L269.404 158.656L269.41 158.655ZM276.316 167.596C276.83 169.516 277.347 171.432 277.859 173.356C277.949 173.691 278.011 173.979 278.477 173.839C279.763 173.453 281.092 173.182 282.346 172.711C284.205 172.015 285.522 170.724 285.814 168.613C286.079 166.724 285.648 164.929 284.809 163.228C283.641 160.851 281.547 159.741 279.014 160.206C277.736 160.438 276.487 160.823 275.217 161.094C274.709 161.205 274.647 161.426 274.784 161.903C275.311 163.8 275.808 165.7 276.316 167.596ZM251.031 185.315C249.358 185.763 247.848 186.174 246.332 186.558C246.187 186.597 245.968 186.489 245.831 186.384C243.655 184.689 241.502 182.975 239.315 181.299C239.073 181.115 238.658 181.041 238.356 181.094C237.674 181.207 235.783 181.748 235.783 181.748C235.783 181.748 235.804 181.919 235.93 182.366C236.457 184.261 236.953 186.161 237.462 188.06L237.673 188.847L233.465 189.974L228.033 169.704C228.194 169.642 228.325 169.575 228.464 169.538C231.366 168.767 234.261 167.969 237.177 167.241C238.636 166.872 240.124 166.904 241.6 167.333C243.599 167.915 244.857 169.305 245.524 171.247C245.823 172.108 245.995 173.053 246.04 173.962C246.134 175.96 245.238 177.512 243.745 178.724C243.553 178.88 243.363 179.041 243.116 179.245C245.742 181.26 248.323 183.237 251.035 185.317L251.031 185.315ZM234.789 178.107C236.155 177.741 237.452 177.396 238.741 177.045C239.08 176.954 239.432 176.863 239.749 176.702C241.343 175.91 241.919 174.648 241.425 173.085C240.95 171.588 239.733 170.841 238.011 171.165C236.546 171.441 235.119 171.88 233.667 172.237C233.345 172.311 233.274 172.478 233.361 172.791C233.585 173.581 233.787 174.379 233.999 175.172L234.785 178.105L234.789 178.107ZM272.876 179.455C271.461 179.834 270.128 180.207 268.786 180.535C268.637 180.572 268.363 180.384 268.246 180.227C267.611 179.387 266.999 178.531 266.406 177.665C266.182 177.338 265.964 177.232 265.567 177.339C262.892 178.074 260.215 178.792 257.532 179.495C257.119 179.602 256.961 179.79 256.931 180.235C256.854 181.303 256.711 182.371 256.57 183.434C256.543 183.602 256.41 183.848 256.273 183.891C254.943 184.279 253.605 184.622 252.176 185.005C252.319 183.705 252.44 182.499 252.585 181.289C253.297 175.212 254.022 169.137 254.722 163.059C254.771 162.627 254.92 162.43 255.33 162.336C256.534 162.038 257.733 161.708 258.925 161.379C259.232 161.297 259.449 161.292 259.682 161.607C264.002 167.438 268.332 173.263 272.662 179.087C272.717 179.174 272.764 179.268 272.88 179.46L272.876 179.455ZM258.267 166.3C257.968 169.407 257.673 172.485 257.375 175.629L263.729 173.926C261.889 171.361 260.087 168.836 258.264 166.301L258.267 166.3ZM196.633 199.9L192.413 201.031L186.972 180.725C188.272 180.377 189.542 180.024 190.813 179.711C190.947 179.679 191.154 179.834 191.293 179.948C194.939 183.02 198.578 186.104 202.216 189.185C202.654 189.552 203.095 189.912 203.638 190.361L200.119 177.227L204.301 176.107L209.744 196.419C208.465 196.761 207.198 197.116 205.922 197.424C205.776 197.459 205.544 197.276 205.391 197.147C201.486 193.849 197.586 190.545 193.686 187.242C193.552 187.127 193.399 187.029 193.141 186.847L196.633 199.9ZM177.094 183.394L181.27 182.275L186.701 202.542L182.525 203.661L177.094 183.394ZM228.794 189.945C228.84 190.115 228.694 190.441 228.536 190.559C226.569 192.429 222.713 193.862 219.234 193.835C215.172 193.803 212.028 192.043 210.203 188.25C208.602 184.932 208.144 181.47 209.79 178.021C210.783 175.949 212.413 174.515 214.39 173.47C217.07 172.059 219.93 171.677 222.925 171.994C223.395 172.045 223.597 172.242 223.704 172.711C223.966 173.827 224.283 174.931 224.605 176.132C224.348 176.087 224.196 176.068 224.042 176.037C221.233 175.424 218.566 175.714 216.124 177.287C213.566 178.935 212.625 181.896 213.618 184.868C214.142 186.42 214.849 187.829 216.213 188.779C217.765 189.861 219.494 190.002 221.259 189.686C222.092 189.535 222.657 189.381 223.127 189.154C223.765 188.842 224.156 188.734 223.88 187.634C223.608 186.703 223.332 185.685 223.059 184.664L219.654 185.576L218.6 181.642L222.01 180.728L222.007 180.717C222.996 180.452 223.947 180.194 224.887 179.958L225.415 179.816L225.416 179.819C225.525 179.796 225.631 179.764 225.739 179.739C226.003 179.668 226.104 179.918 226.143 180.062C226.986 183.136 227.981 186.853 228.788 189.944L228.794 189.945Z" fill="white"/>
<path d="M178.617 210.526L169.807 177.644L194.064 154.616L198.665 171.79L202.845 170.67L196.346 146.419L164.945 176.228L175.569 215.877L212.319 206.03L211.185 201.797L178.617 210.526Z" fill="#FFCF33"/>
<defs>
<filter id="filter0_dddddd_245_2175" x="-0.328461" y="31.9257" width="440.069" height="460.069" filterUnits="userSpaceOnUse" color-interpolation-filters="sRGB">
<feFlood flood-opacity="0" result="BackgroundImageFix"/>
<feColorMatrix in="SourceAlpha" type="matrix" values="0 0 0 0 0 0 0 0 0 0 0 0 0 0 0 0 0 0 127 0" result="hardAlpha"/>
<feOffset dy="2.76726"/>
<feGaussianBlur stdDeviation="1.1069"/>
<feColorMatrix type="matrix" values="0 0 0 0 0 0 0 0 0 0 0 0 0 0 0 0 0 0 0.0196802 0"/>
<feBlend mode="normal" in2="BackgroundImageFix" result="effect1_dropShadow_245_2175"/>
<feColorMatrix in="SourceAlpha" type="matrix" values="0 0 0 0 0 0 0 0 0 0 0 0 0 0 0 0 0 0 127 0" result="hardAlpha"/>
<feOffset dy="6.6501"/>
<feGaussianBlur stdDeviation="2.66004"/>
<feColorMatrix type="matrix" values="0 0 0 0 0 0 0 0 0 0 0 0 0 0 0 0 0 0 0.0282725 0"/>
<feBlend mode="normal" in2="effect1_dropShadow_245_2175" result="effect2_dropShadow_245_2175"/>
<feColorMatrix in="SourceAlpha" type="matrix" values="0 0 0 0 0 0 0 0 0 0 0 0 0 0 0 0 0 0 127 0" result="hardAlpha"/>
<feOffset dy="12.5216"/>
<feGaussianBlur stdDeviation="5.00862"/>
<feColorMatrix type="matrix" values="0 0 0 0 0 0 0 0 0 0 0 0 0 0 0 0 0 0 0.035 0"/>
<feBlend mode="normal" in2="effect2_dropShadow_245_2175" result="effect3_dropShadow_245_2175"/>
<feColorMatrix in="SourceAlpha" type="matrix" values="0 0 0 0 0 0 0 0 0 0 0 0 0 0 0 0 0 0 127 0" result="hardAlpha"/>
<feOffset dy="22.3363"/>
<feGaussianBlur stdDeviation="8.93452"/>
<feColorMatrix type="matrix" values="0 0 0 0 0 0 0 0 0 0 0 0 0 0 0 0 0 0 0.0417275 0"/>
<feBlend mode="normal" in2="effect3_dropShadow_245_2175" result="effect4_dropShadow_245_2175"/>
<feColorMatrix in="SourceAlpha" type="matrix" values="0 0 0 0 0 0 0 0 0 0 0 0 0 0 0 0 0 0 127 0" result="hardAlpha"/>
<feOffset dy="41.7776"/>
<feGaussianBlur stdDeviation="16.711"/>
<feColorMatrix type="matrix" values="0 0 0 0 0 0 0 0 0 0 0 0 0 0 0 0 0 0 0.0503198 0"/>
<feBlend mode="normal" in2="effect4_dropShadow_245_2175" result="effect5_dropShadow_245_2175"/>
<feColorMatrix in="SourceAlpha" type="matrix" values="0 0 0 0 0 0 0 0 0 0 0 0 0 0 0 0 0 0 127 0" result="hardAlpha"/>
<feOffset dy="100"/>
<feGaussianBlur stdDeviation="40"/>
<feColorMatrix type="matrix" values="0 0 0 0 0 0 0 0 0 0 0 0 0 0 0 0 0 0 0.07 0"/>
<feBlend mode="normal" in2="effect5_dropShadow_245_2175" result="effect6_dropShadow_245_2175"/>
<feBlend mode="normal" in="SourceGraphic" in2="effect6_dropShadow_245_2175" result="shape"/>
</filter>
</defs>
</svg>
