<svg width="227" height="23" viewBox="0 0 227 23" fill="none" xmlns="http://www.w3.org/2000/svg">
<path fill-rule="evenodd" clip-rule="evenodd" d="M176.634 0.0191479C147.284 0.297142 127.834 1.36897 88.9327 4.85185C85.5115 5.15807 80.1626 5.63524 77.0463 5.91224C51.3745 8.19326 15.5451 13.8507 5.68689 17.1798C3.64242 17.8702 0 19.7873 0 20.1731C0 20.2369 0.170106 20.1368 0.839195 19.6794C3.92388 17.5706 12.2002 15.6847 32.5799 12.4467C44.6182 10.534 57.7731 8.80719 68.6087 7.71746C76.8799 6.88559 116.128 3.64849 117.448 3.6894C117.719 3.69773 116.222 3.86408 114.122 4.05902C91.5609 6.15355 83.8788 7.00271 70.2716 8.90665C59.7284 10.3818 53.5434 11.4636 37.7383 14.5972C31.792 15.7761 31.9637 15.7323 31.8693 16.0965C31.6304 17.019 32.3919 17.0395 37.2757 16.242C70.3961 10.8347 90.1622 8.86835 121.143 7.89885C129.479 7.63802 158.355 7.39918 157.849 7.59524C157.561 7.70726 148.876 8.39367 134.323 9.45455C101.763 11.8283 80.9294 14.6477 57.9925 19.7842C51.6327 21.2084 50.4915 21.6566 51.0465 22.5117C51.6327 23.4147 55.2579 23.1578 72.9815 20.957C99.5253 17.6609 109.382 16.778 130.628 15.7937C135.566 15.565 144.05 15.3312 143.807 15.4307C143.74 15.4584 138.391 16.0721 131.921 16.7943C115.733 18.6013 105.345 19.9261 104.982 20.2299C104.423 20.6984 104.584 21.374 105.304 21.5757C106.181 21.8216 108.661 21.6871 114.368 21.0838C126.746 19.7755 139.116 19.0584 157.406 18.5886C160.144 18.5182 163.331 18.4076 164.489 18.3427C167.183 18.1917 171.454 18.1921 173.431 18.3435C174.278 18.4083 175.331 18.4882 175.771 18.5212C177.441 18.6459 171.65 17.8427 169.182 17.6071C162.993 17.0168 154.926 16.8847 145.36 17.2169C143.166 17.2931 141.351 17.3362 141.328 17.3129C141.279 17.2636 143.503 17.034 154.277 15.9761C162.538 15.1649 162.745 15.1291 163.06 14.4591C163.26 14.034 163.06 13.5284 162.592 13.2726C162.237 13.0792 150.172 13.1402 143.623 13.3686C127.92 13.9163 119.599 14.3832 109.133 15.3039C98.544 16.2355 91.5093 17.0681 73.9149 19.4724C63.2033 20.9362 57.5632 21.6404 55.6753 21.75L54.5052 21.8179L55.9217 21.4477C60.2912 20.3063 74.8566 17.5216 83.1435 16.2434C100.358 13.5882 112.122 12.3699 138.511 10.5095C160.685 8.9463 165.226 8.47784 165.568 7.71858C165.938 6.90051 165.279 6.41452 163.454 6.15915C160.965 5.81091 130.245 5.89981 119.357 6.28671C108.681 6.66616 96.0015 7.4008 89.3022 8.02815C88.5909 8.09479 87.8149 8.14216 87.5778 8.13345C85.8346 8.06955 109.821 5.71966 123.545 4.60992C138.58 3.39425 150.474 2.69255 166.964 2.04841C177.627 1.63204 204.844 1.80622 215.865 2.36159C226.075 2.87605 226.441 2.88301 226.75 2.57071C227.073 2.24497 227.082 2.0034 226.783 1.70116C226.401 1.3165 224.254 1.11273 219.376 0.99835C217.58 0.956203 213.617 0.785747 210.568 0.619398C207.52 0.453173 203.751 0.260841 202.193 0.191964C199.253 0.0620424 183.41 -0.0450047 176.634 0.0191479ZM122.346 3.38231C122.263 3.41638 122.097 3.41849 121.977 3.38691C121.857 3.35533 121.925 3.32748 122.128 3.325C122.332 3.32251 122.43 3.34825 122.346 3.38231ZM120.744 3.5126C120.593 3.54207 120.316 3.54282 120.129 3.51435C119.941 3.48575 120.065 3.46163 120.404 3.46064C120.743 3.45977 120.896 3.48314 120.744 3.5126ZM119.08 3.63843C118.894 3.6669 118.589 3.6669 118.402 3.63843C118.216 3.60995 118.369 3.5867 118.741 3.5867C119.114 3.5867 119.266 3.60995 119.08 3.63843ZM86.8695 8.23727C86.7171 8.26686 86.4676 8.26686 86.3152 8.23727C86.1628 8.20755 86.2875 8.18331 86.5924 8.18331C86.8972 8.18331 87.0219 8.20755 86.8695 8.23727ZM85.5146 8.35612C85.43 8.39069 85.2914 8.39069 85.2066 8.35612C85.122 8.32169 85.1912 8.29347 85.3606 8.29347C85.53 8.29347 85.5993 8.32169 85.5146 8.35612ZM176.849 18.6752C176.934 18.7098 177.073 18.7098 177.157 18.6752C177.242 18.6408 177.173 18.6126 177.003 18.6126C176.834 18.6126 176.765 18.6408 176.849 18.6752Z" fill="#FF0000"/>
</svg>
