<svg width="129" height="128" viewBox="0 0 129 128" fill="none" xmlns="http://www.w3.org/2000/svg">
<path d="M48.4998 84.8H21.2998C15.6998 84.8 11.1665 80.2667 11.1665 74.6667V26.1333C11.1665 20.5333 15.6998 16 21.2998 16H102.367C107.966 16 112.5 20.5333 112.5 26.1333V58.6667" stroke="#FFC400" stroke-width="1.5" stroke-linecap="round" stroke-linejoin="round"/>
<path d="M120.441 93.3333L112.441 85.3333L104.441 93.3333" stroke="#FFC400" stroke-width="1.5" stroke-linecap="round" stroke-linejoin="round"/>
<path d="M112.441 85.3333V103.472C112.441 108.165 108.601 112 103.913 112H91.1665" stroke="#FFC400" stroke-width="1.5" stroke-linecap="round" stroke-linejoin="round"/>
<path d="M67.2251 93.3333L75.2251 101.333L83.2251 93.3333" stroke="#FFC400" stroke-width="1.5" stroke-linecap="round" stroke-linejoin="round"/>
<path d="M75.2251 101.333V83.1947C75.2251 78.5014 79.0651 74.6667 83.7531 74.6667H96.4998" stroke="#FFC400" stroke-width="1.5" stroke-linecap="round" stroke-linejoin="round"/>
<path d="M70.7882 42.512C75.7322 47.456 75.7322 55.4773 70.7882 60.4267C65.8442 65.3707 57.8229 65.3707 52.8735 60.4267C47.9295 55.4827 47.9295 47.4613 52.8735 42.512C57.8229 37.5627 65.8442 37.5627 70.7882 42.512" stroke="#FFC400" stroke-width="1.5" stroke-linecap="round" stroke-linejoin="round"/>
<path d="M32.4998 69.3334H27.1665" stroke="#FFC400" stroke-width="1.5" stroke-linecap="round" stroke-linejoin="round"/>
<path d="M96.4998 32H91.1665" stroke="#FFC400" stroke-width="1.5" stroke-linecap="round" stroke-linejoin="round"/>
</svg>
