<svg width="129" height="128" viewBox="0 0 129 128" fill="none" xmlns="http://www.w3.org/2000/svg">
<path fill-rule="evenodd" clip-rule="evenodd" d="M32.5 112H21.8333C18.8893 112 16.5 109.611 16.5 106.667V74.6666C16.5 71.7226 18.8893 69.3333 21.8333 69.3333H32.5C35.444 69.3333 37.8333 71.7226 37.8333 74.6666V106.667C37.8333 109.611 35.444 112 32.5 112Z" stroke="#FFC400" stroke-width="1.5" stroke-linecap="round" stroke-linejoin="round"/>
<path d="M69.8335 90.6667H82.2762C84.5855 90.6667 86.8308 89.92 88.6762 88.5334L101.561 78.8694C104.777 76.4587 109.279 76.7787 112.121 79.6214V79.6214C115.279 82.7787 115.279 87.8934 112.121 91.0454L101.065 102.101C98.0895 105.077 94.2922 107.109 90.1642 107.936L74.5375 111.061C71.4388 111.68 68.2442 111.605 65.1775 110.837L51.0442 107.307C49.3535 106.88 47.6202 106.667 45.8762 106.667H37.8335" stroke="#FFC400" stroke-width="1.5" stroke-linecap="round" stroke-linejoin="round"/>
<path d="M69.8335 90.6666H77.7535C82.2175 90.6666 85.8335 87.0506 85.8335 82.5866V80.9706C85.8335 77.264 83.3108 74.032 79.7162 73.136L67.4922 70.08C65.5028 69.584 63.4655 69.3333 61.4175 69.3333V69.3333C56.4735 69.3333 51.6362 70.7946 47.5242 73.5413L37.8335 80" stroke="#FFC400" stroke-width="1.5" stroke-linecap="round" stroke-linejoin="round"/>
<path d="M92.0668 27.4946C97.9778 33.4056 97.9778 42.9891 92.0668 48.9001C86.1558 54.8111 76.5723 54.8111 70.6613 48.9001C64.7503 42.9891 64.7503 33.4056 70.6613 27.4946C76.5723 21.5836 86.1558 21.5836 92.0668 27.4946" stroke="#FFC400" stroke-width="1.5" stroke-linecap="round" stroke-linejoin="round"/>
<path d="M78.532 23.3334C78.036 20.32 76.66 17.424 74.3347 15.0987C68.4253 9.18935 58.8413 9.18935 52.932 15.0987C47.0227 21.008 47.0227 30.592 52.932 36.5014C56.612 40.1814 61.7107 41.5627 66.4627 40.6614" stroke="#FFC400" stroke-width="1.5" stroke-linecap="round" stroke-linejoin="round"/>
</svg>
