<svg width="129" height="128" viewBox="0 0 129 128" fill="none" xmlns="http://www.w3.org/2000/svg">
<path d="M112.5 96V106.667" stroke="#FFC400" stroke-width="1.5" stroke-linecap="round" stroke-linejoin="round"/>
<path fill-rule="evenodd" clip-rule="evenodd" d="M64.5 69.3333H116.244C120.068 69.3333 123.167 72.432 123.167 76.256V90.864C123.167 93.7013 120.868 96 118.031 96H64.5L64.5 69.3333Z" stroke="#FFC400" stroke-width="1.5" stroke-linecap="round" stroke-linejoin="round"/>
<path d="M64.5 37.3334C64.5 31.44 70.1693 26.6667 77.1667 26.6667H102.5C109.497 26.6667 115.167 31.44 115.167 37.3334V57.28" stroke="#FFC400" stroke-width="1.5" stroke-linecap="round" stroke-linejoin="round"/>
<path fill-rule="evenodd" clip-rule="evenodd" d="M12.7562 69.3333H64.5002V96H9.29483C7.3855 96 5.8335 94.448 5.8335 92.5386V76.256C5.8335 72.432 8.93216 69.3333 12.7562 69.3333V69.3333Z" stroke="#FFC400" stroke-width="1.5" stroke-linecap="round" stroke-linejoin="round"/>
<path d="M13.8335 57.28V37.3334C13.8335 31.44 19.5028 26.6667 26.5002 26.6667H51.8335C58.8308 26.6667 64.5002 31.44 64.5002 37.3334" stroke="#FFC400" stroke-width="1.5" stroke-linecap="round" stroke-linejoin="round"/>
<path d="M16.5002 96V106.667" stroke="#FFC400" stroke-width="1.5" stroke-linecap="round" stroke-linejoin="round"/>
<path d="M11.1665 69.52V64.528C11.1665 58.3413 16.1745 53.3333 22.3558 53.3333H53.3105C59.4918 53.3333 64.4998 58.3413 64.4998 64.5226V69.3333" stroke="#FFC400" stroke-width="1.5" stroke-linecap="round" stroke-linejoin="round"/>
<path d="M64.5 69.3333V64.5226C64.5 58.3413 69.508 53.3333 75.6893 53.3333H106.644C112.825 53.3333 117.833 58.3413 117.833 64.5226V69.5146" stroke="#FFC400" stroke-width="1.5" stroke-linecap="round" stroke-linejoin="round"/>
<path d="M64.5002 37.3333V106.667" stroke="#FFC400" stroke-width="1.5" stroke-linecap="round" stroke-linejoin="round"/>
</svg>
