<svg width="105" height="112" viewBox="0 0 105 112" fill="none" xmlns="http://www.w3.org/2000/svg">
<path fill-rule="evenodd" clip-rule="evenodd" d="M29 13.75C29 13.3358 29.3358 13 29.75 13H63.25C69.6815 13 75.8496 15.5549 80.3973 20.1027C84.9451 24.6504 87.5 30.8185 87.5 37.25C87.5 40.4346 86.8727 43.5879 85.6541 46.5301C84.4354 49.4722 82.6492 52.1455 80.3973 54.3973C78.1455 56.6492 75.4722 58.4354 72.5301 59.6541C69.5879 60.8728 66.4346 61.5 63.25 61.5H30.5V73H58.75C59.1642 73 59.5 73.3358 59.5 73.75C59.5 74.1642 59.1642 74.5 58.75 74.5H30.5V107.75C30.5 108.164 30.1642 108.5 29.75 108.5C29.3358 108.5 29 108.164 29 107.75V74.5H19.75C19.3358 74.5 19 74.1642 19 73.75C19 73.3358 19.3358 73 19.75 73H29V61.5H19.75C19.3358 61.5 19 61.1642 19 60.75C19 60.3358 19.3358 60 19.75 60H29V13.75ZM30.5 60H63.25C66.2376 60 69.1959 59.4116 71.956 58.2683C74.7162 57.125 77.2241 55.4492 79.3367 53.3367C81.4492 51.2241 83.125 48.7162 84.2683 45.956C85.4116 43.1959 86 40.2376 86 37.25C86 31.2163 83.6031 25.4298 79.3367 21.1633C75.0702 16.8969 69.2837 14.5 63.25 14.5H30.5V60Z" fill="#FFC400"/>
</svg>
